{"title":"Just Wright CAM XViD - IMAGiNE","uid":5588203,"size":746778926,"categoryP":"video","categoryS":"movies","magnet":"?xt=urn:btih:aa91688c450ea42ea143f075945c595a4789b9be&amp;dn=Just+Wright+CAM+XViD+-+IMAGiNE&amp;tr=udp%3A%2F%2Ftracker.openbittorrent.com%3A80&amp;tr=udp%3A%2F%2Fopen.demonii.com%3A1337&amp;tr=udp%3A%2F%2Ftracker.coppersurfer.tk%3A6969&amp;tr=udp%3A%2F%2Fexodus.desync.com%3A6969","seeders":1,"leechers":0,"uploader":"IwannaFan2","files":3,"time":1274769353,"description":"Filename:\nJust Wright CAM XViD - IMAGiNE\n &lt;a href=&quot;\nhttp://www.imdb.com/title/tt1407061/&quot; rel=&quot;nofollow&quot; target=&quot;_NEW&quot;&gt;\nhttp://www.imdb.com/title/tt1407061/&lt;/a&gt;\n\nDETAILS:\n\nVideo\nID                               : 0\nFormat                           : MPEG-4 Visual\nFormat profile                   : Advanced Simple@L5\nFormat settings, BVOP            : Yes\nFormat settings, QPel            : No\nFormat settings, GMC             : No warppoints\nFormat settings, Matrix          : Default (MPEG)\nMuxing mode                      : Packed bitstream\nCodec ID                         : XVID\nCodec ID/Hint                    : XviD\nDuration                         : 1h 35mn\nBit rate                         : 764 Kbps\nWidth                            : 528 pixels\nHeight                           : 224 pixels\nDisplay aspect ratio             : 2.35\nFrame rate                       : 23.976 fps\nResolution                       : 24 bits\nColorimetry                      : 4:2:0\nScan type                        : Progressive\nBits/(Pixel*Frame)               : 0.269\nStream size                      : 523 MiB (74%)\nWriting library                  : XviD 1.2.1 (UTC 2008-12-04)\n\nAudio\nID                               : 1\nFormat                           : AC-3\nFormat/Info                      : Audio Coding 3\nCodec ID                         : 2000\nDuration                         : 1h 35mn\nBit rate mode                    : Constant\nBit rate                         : 256 Kbps\nChannel(s)                       : 2 channels\nChannel positions                : L R\nSampling rate                    : 48.0 KHz\nStream size                      : 175 MiB (25%)\nAlignment                        : Aligned on interleaves\nInterleave, duration             : 42 ms (1.00 video frame)\nInterleave, preload duration     : 512 ms\n\n\nNOTES:\n\nIMAGiNE bringing you another release.....Just Wright\n\nFirstly sourced used was a dvdr by nogrp so thanks to whoever ;-)\nRight considering things are a bit slow on releases we thought we'd just do some cleaning up for now\nThe source had a really low res and had lots of faults....so we tried to clean it up the best we could.\nWe used a deflicker,deblocker,balance the rgb colours out,toned down the glares etc....\nThe audio we just left as it was so ......\n","torrent":{"xt":"urn:btih:aa91688c450ea42ea143f075945c595a4789b9be","amp;dn":"Just+Wright+CAM+XViD+-+IMAGiNE","amp;tr":["udp%3A%2F%2Ftracker.openbittorrent.com%3A80","udp%3A%2F%2Fopen.demonii.com%3A1337","udp%3A%2F%2Ftracker.coppersurfer.tk%3A6969","udp%3A%2F%2Fexodus.desync.com%3A6969"],"infoHash":"aa91688c450ea42ea143f075945c595a4789b9be","infoHashBuffer":{"type":"Buffer","data":[170,145,104,140,69,14,164,46,161,67,240,117,148,92,89,90,71,137,185,190]},"announce":[],"urlList":[]}}